<svg xmlns="http://www.w3.org/2000/svg" xmlns:xlink="http://www.w3.org/1999/xlink" width="1125" height="95" viewBox="0 0 1125 95"><defs><style>.a{opacity:0.83;}.b,.d,.h{fill:#72808a;}.b{opacity:0.36;}.c{fill:#fff;fill-rule:evenodd;}.d,.f{font-size:15px;font-family:Arial-BoldMT, Arial;font-weight:700;}.e,.i{fill:none;}.e{stroke:#fff;stroke-width:2px;}.f{fill:#f6f6f6;}.g,.h{stroke:none;}.j{filter:url(#m);}.k{filter:url(#k);}.l{filter:url(#i);}.m{filter:url(#g);}.n{filter:url(#e);}.o{filter:url(#c);}.p{filter:url(#a);}</style><filter id="a" x="0" y="0" width="1125" height="95" filterUnits="userSpaceOnUse"><feOffset dx="3" dy="10" input="SourceAlpha"/><feGaussianBlur stdDeviation="7.5" result="b"/><feFlood flood-color="#72808a"/><feComposite operator="in" in2="b"/><feComposite in="SourceGraphic"/></filter><filter id="c" x="79.344" y="24.5" width="27.4" height="36" filterUnits="userSpaceOnUse"><feOffset dx="4" dy="5" input="SourceAlpha"/><feGaussianBlur stdDeviation="3" result="d"/><feFlood flood-color="#72808a"/><feComposite operator="in" in2="d"/><feComposite in="SourceGraphic"/></filter><filter id="e" x="45.344" y="23.5" width="37" height="37" filterUnits="userSpaceOnUse"><feOffset dx="4" dy="5" input="SourceAlpha"/><feGaussianBlur stdDeviation="3" result="f"/><feFlood flood-color="#72808a"/><feComposite operator="in" in2="f"/><feComposite in="SourceGraphic"/></filter><filter id="g" x="218.5" y="29.5" width="200" height="37" filterUnits="userSpaceOnUse"><feOffset dx="4" dy="11" input="SourceAlpha"/><feGaussianBlur stdDeviation="3" result="h"/><feFlood flood-opacity="0.161"/><feComposite operator="in" in2="h"/><feComposite in="SourceGraphic"/></filter><filter id="i" x="434.5" y="29.5" width="122" height="38" filterUnits="userSpaceOnUse"><feOffset dx="4" dy="11" input="SourceAlpha"/><feGaussianBlur stdDeviation="3" result="j"/><feFlood flood-opacity="0.161"/><feComposite operator="in" in2="j"/><feComposite in="SourceGraphic"/></filter><filter id="k" x="571.5" y="29.5" width="348" height="37" filterUnits="userSpaceOnUse"><feOffset dx="4" dy="11" input="SourceAlpha"/><feGaussianBlur stdDeviation="3" result="l"/><feFlood flood-opacity="0.161"/><feComposite operator="in" in2="l"/><feComposite in="SourceGraphic"/></filter><filter id="m" x="971.5" y="25.104" width="104" height="35" filterUnits="userSpaceOnUse"><feOffset dx="4" dy="5" input="SourceAlpha"/><feGaussianBlur stdDeviation="3" result="n"/><feFlood flood-color="#72808a"/><feComposite operator="in" in2="n"/><feComposite in="SourceGraphic"/></filter></defs><g transform="translate(19.5 -781.5)"><g class="a"><g class="p" transform="matrix(1, 0, 0, 1, -19.5, 781.5)"><g class="b" transform="translate(19.5 12.5)"><path class="g" d="M 1079.5 49.5 L 0.5 49.5 L 0.5 0.5 L 1079.5 0.5 L 1079.5 49.5 Z"/><path class="h" d="M 1 1 L 1 49 L 1079 49 L 1079 1 L 1 1 M 0 0 L 1080 0 L 1080 50 L 0 50 L 0 0 Z"/></g></g><g class="o" transform="matrix(1, 0, 0, 1, -19.5, 781.5)"><path class="c" d="M86.1,18V9.8h2.8l.4-3.2H86.1v-2c0-.9.3-1.6,1.6-1.6h1.7V.1C89,.1,88,0,86.9,0a3.86,3.86,0,0,0-4.1,4.2V6.6H80V9.8h2.8V18Z" transform="translate(4.34 28.5)"/></g><g class="n" transform="matrix(1, 0, 0, 1, -19.5, 781.5)"><path class="c" d="M9.5,1.689a29.129,29.129,0,0,1,3.8.106,4.9,4.9,0,0,1,1.794.317,3.707,3.707,0,0,1,1.794,1.794A4.9,4.9,0,0,1,17.206,5.7c0,.95.106,1.267.106,3.8a29.129,29.129,0,0,1-.106,3.8,4.9,4.9,0,0,1-.317,1.794,3.707,3.707,0,0,1-1.794,1.794,4.9,4.9,0,0,1-1.794.317c-.95,0-1.267.106-3.8.106a29.129,29.129,0,0,1-3.8-.106,4.9,4.9,0,0,1-1.794-.317,3.707,3.707,0,0,1-1.794-1.794A4.9,4.9,0,0,1,1.794,13.3c0-.95-.106-1.267-.106-3.8a29.129,29.129,0,0,1,.106-3.8,4.9,4.9,0,0,1,.317-1.794A3.791,3.791,0,0,1,2.85,2.85a1.785,1.785,0,0,1,1.056-.739A4.9,4.9,0,0,1,5.7,1.794a29.129,29.129,0,0,1,3.8-.106M9.5,0A31.189,31.189,0,0,0,5.594.106,6.517,6.517,0,0,0,3.272.528,4.132,4.132,0,0,0,1.583,1.583,4.132,4.132,0,0,0,.528,3.272,4.809,4.809,0,0,0,.106,5.594,31.189,31.189,0,0,0,0,9.5a31.189,31.189,0,0,0,.106,3.906,6.517,6.517,0,0,0,.422,2.322,4.132,4.132,0,0,0,1.056,1.689,4.132,4.132,0,0,0,1.689,1.056,6.517,6.517,0,0,0,2.322.422A31.19,31.19,0,0,0,9.5,19a31.19,31.19,0,0,0,3.906-.106,6.517,6.517,0,0,0,2.322-.422,4.429,4.429,0,0,0,2.744-2.744,6.517,6.517,0,0,0,.422-2.322c0-1.056.106-1.372.106-3.906a31.19,31.19,0,0,0-.106-3.906,6.517,6.517,0,0,0-.422-2.322,4.132,4.132,0,0,0-1.056-1.689A4.132,4.132,0,0,0,15.728.528,6.517,6.517,0,0,0,13.406.106,31.189,31.189,0,0,0,9.5,0m0,4.644A4.777,4.777,0,0,0,4.644,9.5,4.856,4.856,0,1,0,9.5,4.644m0,8.022A3.11,3.11,0,0,1,6.333,9.5,3.11,3.11,0,0,1,9.5,6.333,3.11,3.11,0,0,1,12.667,9.5,3.11,3.11,0,0,1,9.5,12.667m5.067-9.394a1.161,1.161,0,1,0,1.161,1.161,1.171,1.171,0,0,0-1.161-1.161" transform="translate(50.34 27.5)"/></g><g class="m" transform="matrix(1, 0, 0, 1, -19.5, 781.5)"><text class="d" transform="translate(405.5 43.5)"><tspan x="-181.663" y="0">CHARLIEBRIGITTE HAIR </tspan></text></g><g class="l" transform="matrix(1, 0, 0, 1, -19.5, 781.5)"><text class="d" transform="translate(491.5 43.5)"><tspan x="-51.702" y="0">(973)-555-5555</tspan></text></g><g class="k" transform="matrix(1, 0, 0, 1, -19.5, 781.5)"><text class="d" transform="translate(741.5 43.5)"><tspan x="-164.323" y="0" xml:space="preserve"> 41 WASHINGTON STREET MORRISTOWN, NJ</tspan></text></g><text class="d" transform="translate(403 825)"><tspan x="-2.098" y="0">|</tspan></text><text class="d" transform="translate(541 825)"><tspan x="-2.098" y="0">|</tspan></text></g><g transform="translate(954 802)"><g class="e" transform="translate(-4 4)"><rect class="g" width="100" height="26.5" rx="4"/><rect class="i" x="1" y="1" width="98" height="24.5" rx="3"/></g><g class="j" transform="matrix(1, 0, 0, 1, -973.5, -20.5)"><text class="f" transform="translate(1019.5 43.1)"><tspan x="-42.913" y="0">BOOK NOW</tspan></text></g></g></g></svg>